<svg xmlns="http://www.w3.org/2000/svg" xmlns:xlink="http://www.w3.org/1999/xlink" width="0" height="0" style="position:absolute">

<symbol id="icon-arrow" viewBox="0 0 31 40">
        <title>arrow</title><path d="M28.955 3.782l.01 32.393-25.2-16.202 25.19-16.19zM1.415 19.158l-1.31.84 1.31.843 28 18 1.54.993V.168l-1.54.99-28 18z" fill-rule="evenodd"/>
</symbol>

<symbol id="icon-clock" viewBox="0 0 31 41">
        <title>clock</title><path d="M21 20v1l-.153.076L31 41H0l10.16-19.92L10 21v-1l.16-.08L0 0h31L20.847 19.924 21 20zm6.996-18.01H3.01L12 19v3L3.01 39.01h24.986L19 22v-3l8.996-17.01zM16 24.85L22 35H9l6-10.156v-7.557l-3.01-4.3h7.015L16 17.28v7.57z" fill-rule="evenodd"/>
</symbol>

<symbol id="icon-diamond" viewBox="0 0 68 55">
        <title>diamond</title><path d="M67.58 19.795L35.007 54.54c-.178.28-.48.456-.808.456l-.017-.003h-.003c-.003 0-.006.003-.01.003h-.002c-.036 0-.068-.017-.102-.02-.054-.01-.107-.01-.16-.026-.008-.003-.014-.01-.022-.013-.02-.006-.04-.005-.06-.012-.032-.013-.06-.03-.09-.047-.077-.04-.147-.088-.212-.148-.015-.014-.035-.02-.05-.035L.397 19.832c-.12-.084-.225-.19-.3-.323-.046-.088-.047-.184-.068-.277-.01-.034-.02-.063-.026-.097-.015-.13.004-.25.04-.377.013-.05-.003-.1.017-.15.014-.03.036-.056.05-.085.004-.003.003-.006.005-.01L11.005.47c.023-.038.064-.056.09-.09.056-.07.117-.13.186-.18.053-.037.1-.07.158-.095.107-.052.222-.084.344-.093.017 0 .03-.012.047-.012h.004c.005 0 .01.003.014.003h.002L33.934 0h.112c.007 0 .014.003.022.003L56.002 0h.11c.35 0 .673.193.845.505.047.086.048.184.068.278l10.68 17.556c.07.08.13.166.173.27.004.007 0 .017.003.026.055.12.09.25.09.39 0 .32-.16.59-.39.768zM34.174 50.85l9.667-30.84H24.32l9.854 30.84zm11.7-30.84l-9.457 30.17 28.28-30.17h-18.82zM31.948 50.25l-9.662-30.24H3.26l28.688 30.24zM11.843 2.847L2.693 18.01h18.51l-7.24-11.74-2.12-3.423zm1.754-.874l1.458 2.365 7.916 12.78L32.2 1.97l-18.603.003zm20.398.96l-9.19 15.077h18.43l-9.24-15.076zm1.795-.96l9.23 15.048 9.23-15.05-18.46.004zm20.267.98l-9.12 15.057h18.277L56.057 2.954z" fill-rule="evenodd"/>
</symbol>

<symbol id="icon-dollar" viewBox="0 0 57 56">
        <title>dollar</title><path d="M28.58 56c-15.465 0-28-12.536-28-28s12.535-28 28-28c15.463 0 28 12.536 28 28s-12.537 28-28 28zm0-54.09C14.196 1.91 2.487 13.617 2.487 28s11.71 26.09 26.09 26.09C42.962 54.09 54.67 42.383 54.67 28S42.96 1.91 28.58 1.91zm3.18 25.135c4.01 0 7.32 3.31 7.32 7.32 0 4.008-3.31 7.317-7.32 7.317h-2.226v5.41c0 .508-.446.953-.955.953-.51 0-.957-.445-.957-.954v-5.407h-8.59c-.51 0-.955-.446-.955-.955 0-.51.444-.954.954-.954h8.59v-10.82h-2.227c-4.01 0-7.318-3.308-7.318-7.317 0-4.01 3.308-7.318 7.317-7.318h2.227V8.91c0-.51.447-.954.956-.954.508 0 .954.445.954.954v5.408h8.59c.51 0 .955.446.955.955 0 .51-.446.954-.956.954h-8.59v10.818h2.226zm-2.226 12.728h2.227c2.993 0 5.41-2.418 5.41-5.41 0-2.99-2.417-5.41-5.41-5.41h-2.225v10.82zm-1.91-23.546h-2.227c-2.99 0-5.41 2.42-5.41 5.41s2.42 5.408 5.41 5.408h2.227V16.227z" fill-rule="evenodd"/>
</symbol>

<symbol id="icon-eye" viewBox="0 0 67 59">
        <title>eye</title><path d="M.422 59l33-59.016L66.42 59h-66zm3-2.016h60l-30-53-30 53zm44.84-15.144c-.154.333-3.885 8.16-14.84 8.16-10.956 0-14.688-7.827-14.84-8.16l-.162-.35.162-.35c.156-.333 3.932-8.157 14.84-8.157s14.683 7.824 14.838 8.157l.163.35-.16.35zm-14.84-7.237c-8.664 0-12.4 5.454-13.238 6.895.826 1.468 4.47 6.88 13.237 6.88 8.7 0 12.41-5.446 13.24-6.89-.834-1.466-4.505-6.885-13.238-6.885zm0 11.623c-2.545 0-4.615-2.082-4.615-4.64 0-2.56 2.07-4.64 4.614-4.64 2.547 0 4.616 2.08 4.616 4.64 0 2.56-2.07 4.64-4.614 4.64zm0-7.71c-1.682 0-3.05 1.378-3.05 3.07 0 1.69 1.368 3.067 3.05 3.067 1.68 0 3.05-1.376 3.05-3.068 0-1.69-1.37-3.068-3.05-3.068z" fill-rule="evenodd"/>
</symbol>

<symbol id="icon-fish" viewBox="0 0 50 21">
        <title>fish</title><path d="M49.92 11.398c-.155.302-3.313 7.702-18.257 9.363-1.08.153-2.465.228-4.006.228-6.085 0-11.323-2.34-15.79-7.02l-10.862 3.85c-.308.15-.694 0-.925-.303-.154-.226-.077-.604.154-.906.077-.076 4.545-4.984 3.313-8.835-1.233-3.85-2.31-4.68-2.31-4.68-.386-.227-.463-.68-.232-.983.23-.3.693-.452 1-.3l10.092 5.21c1.387-1.74 6.317-6.875 17.178-7.026h.385c10.553 0 15.945 5.135 20.182 10.646.154.227.23.453.077.755zm-20.183-9.89h-.385c-12.017.226-16.408 6.87-16.408 6.946-.23.377-.693.453-1 .302L3.93 4.603c.308.755.693 1.66 1.078 2.794 1.002 2.944-.616 6.19-2.003 8.23l8.86-3.247c.307-.075.615 0 .846.226 4.315 4.757 9.09 6.947 15.02 6.947 1.466 0 2.775-.15 3.777-.227.77-.075 1.54-.226 2.233-.302C28.425 14.872 31.12 8.076 31.12 8c.155-.376.617-.602 1.002-.45.385.15.616.603.462.98-.077.302-2.62 6.645 3.312 10.042 8.704-1.962 11.708-6.115 12.478-7.398C43.83 5.36 38.9 1.51 29.734 1.51zm9.013 8.53c-.81 0-1.464-.64-1.464-1.433 0-.792.655-1.435 1.464-1.435.808 0 1.463.643 1.463 1.435s-.655 1.434-1.463 1.434z" fill-rule="evenodd"/>
</symbol>

<symbol id="icon-letter" viewBox="0 0 55 47">
        <title>letter</title><path d="M23.984 39.016l-6.368 8-6.26-8H.843v-39h54v39h-30.86zM52.842 3.463L34.19 23.003l18.65 12.803V3.464zM12.077 37.016l5.6 7 5.5-7H51.08l-18.287-12.55-.244.256-1.35-1.35-7.89-5.413L4.257 37.015h7.82zm-9.235-1.414L21.635 16.81 2.842 3.91V35.6zM32.52 21.858L51.46 2.014H3.605L32.52 21.858z" fill-rule="evenodd"/>
</symbol>

<symbol id="icon-octa" viewBox="0 0 110 127">
        <title>octa</title><path d="M55 126L1 94.75v-62.5L55 1l54 31.25v62.5L55 126z" stroke="#D0DBE0" fill-rule="evenodd"/>
</symbol>

<symbol id="icon-steering" viewBox="0 0 79 80">
        <title>steering</title><path d="M77.792 38.8l-5.186.003v-.4c0-.66-.535-1.197-1.197-1.197-.664 0-1.2.535-1.2 1.198v.398l-2.47.002c-.29-6.898-3.056-13.165-7.436-17.928l1.192-1.192.283.283c.233.233.54.35.845.35.308 0 .612-.117.848-.35.467-.47.466-1.227 0-1.695l-.284-.282 4.23-4.232c.47-.467.47-1.226 0-1.694-.467-.466-1.224-.466-1.69 0l-4.233 4.234-.283-.284c-.468-.466-1.224-.466-1.693 0-.466.47-.465 1.226 0 1.694l.285.282-1.192 1.192c-4.763-4.38-11.027-7.147-17.92-7.437V9.27h.398c.66 0 1.198-.535 1.198-1.197 0-.663-.54-1.198-1.2-1.198h-.4V1.69c0-.664-.535-1.2-1.196-1.2-.66 0-1.197.536-1.197 1.198v5.187h-.4c-.66 0-1.196.537-1.196 1.198 0 .662.535 1.197 1.197 1.197h.4v2.475c-6.896.29-13.16 3.057-17.922 7.438l-1.193-1.194.282-.283c.467-.47.467-1.226 0-1.694-.467-.467-1.225-.467-1.692 0l-.282.283-4.23-4.234c-.468-.466-1.226-.466-1.694 0-.467.467-.467 1.226 0 1.694l4.232 4.232-.282.282c-.467.468-.467 1.226 0 1.693.234.233.54.35.847.35.306 0 .612-.117.846-.35l.28-.282 1.192 1.193c-4.38 4.765-7.146 11.03-7.434 17.928H9.573v-.4c0-.66-.535-1.196-1.197-1.196S7.18 37.74 7.18 38.4v.4H1.195C.534 38.8 0 39.337 0 40c0 .66.534 1.197 1.196 1.197H7.18v.4c0 .66.536 1.197 1.198 1.197.662 0 1.197-.535 1.197-1.197v-.4h1.675c.288 6.897 3.055 13.163 7.434 17.928l-1.757 1.758-.282-.283c-.466-.467-1.224-.467-1.692-.002-.467.47-.467 1.227 0 1.694l.282.282-3.667 3.668c-.467.468-.467 1.226 0 1.693.234.233.54.35.847.35.306 0 .612-.117.846-.35l3.668-3.668.282.282c.233.234.54.352.845.352.307 0 .613-.12.847-.35.467-.47.467-1.228 0-1.696l-.282-.282 1.757-1.758c4.763 4.383 11.027 7.15 17.922 7.438v1.675h-.4c-.66 0-1.198.536-1.198 1.198 0 .662.535 1.198 1.197 1.198h.396v5.986c0 .66.536 1.197 1.197 1.197.662 0 1.198-.535 1.198-1.2v-5.984h.4c.66 0 1.197-.535 1.197-1.197 0-.663-.535-1.2-1.197-1.2h-.398V68.25c6.895-.29 13.16-3.054 17.922-7.435l1.756 1.755-.283.282c-.468.468-.468 1.225 0 1.694.234.234.54.352.847.352.307 0 .61-.118.846-.352l.283-.282 3.667 3.668c.233.233.54.35.846.35.307 0 .612-.117.847-.35.468-.468.468-1.226 0-1.693l-3.668-3.668.282-.282c.468-.468.468-1.226 0-1.694-.467-.467-1.224-.467-1.692 0l-.28.282-1.757-1.756c4.38-4.764 7.146-11.03 7.434-17.928h2.472v.398c0 .662.535 1.198 1.197 1.198.664 0 1.2-.535 1.2-1.197v-.4h5.185c.66 0 1.197-.536 1.197-1.198 0-.663-.537-1.2-1.198-1.2v.002zm-12.446.003h-2.08c-.28-5.666-2.55-10.817-6.118-14.773l1.465-1.465c3.948 4.33 6.448 10 6.733 16.236v.003zM40.69 20.82c4.394.284 8.384 2.043 11.487 4.796L40.69 37.108V20.822zm-2.393 16.287L26.764 25.57c3.118-2.747 7.125-4.492 11.533-4.755V37.11zm-1.692 1.69l-16.332.002c.274-4.415 2.034-8.423 4.796-11.54L36.603 38.8zm0 2.397L25.07 52.734c-2.763-3.117-4.524-7.123-4.797-11.538h16.332zm1.692 1.69v16.294c-4.408-.26-8.414-2.007-11.533-4.754l11.533-11.538zm2.394.002l11.488 11.49c-3.103 2.752-7.093 4.512-11.486 4.795V42.89zm1.693-1.694H58.62c-.273 4.392-2.015 8.38-4.75 11.49l-11.487-11.49zm0-2.395L53.87 27.31c2.736 3.11 4.477 7.098 4.75 11.488l-16.237.002zM56.92 20.875l-1.46 1.46c-3.95-3.585-9.1-5.87-14.77-6.16v-2.037c6.236.287 11.903 2.787 16.23 6.736zM38.297 14.14v2.03c-5.682.273-10.85 2.542-14.814 6.122l-1.416-1.416c4.328-3.95 9.995-6.45 16.23-6.736zm-17.922 8.43l1.413 1.41c-3.595 3.963-5.878 9.13-6.16 14.82l-1.985.003c.285-6.237 2.785-11.907 6.732-16.235zm-6.733 18.627h1.984c.283 5.69 2.566 10.86 6.16 14.823l-1.41 1.41c-3.948-4.327-6.448-9.996-6.734-16.233zm8.425 17.928l1.416-1.416c3.964 3.58 9.132 5.85 14.815 6.12v2.03c-6.237-.283-11.904-2.784-16.23-6.735zM40.69 65.86v-2.035c5.67-.294 10.82-2.576 14.77-6.162l1.46 1.463c-4.326 3.95-9.993 6.45-16.23 6.735zm17.923-8.428l-1.465-1.465c3.568-3.954 5.837-9.105 6.118-14.77h2.08c-.285 6.237-2.785 11.906-6.733 16.235z" fill-rule="evenodd"/>
</symbol>
</svg>