<?xml version="1.0" encoding="UTF-8" standalone="no"?>
<svg width="31px" height="41px" viewBox="0 0 31 41" version="1.1" xmlns="http://www.w3.org/2000/svg" xmlns:xlink="http://www.w3.org/1999/xlink" xmlns:sketch="http://www.bohemiancoding.com/sketch/ns">
    <!-- Generator: Sketch 3.3 (11970) - http://www.bohemiancoding.com/sketch -->
    <title>clock</title>
    <desc>Created with Sketch.</desc>
    <defs></defs>
    <g id="Page-1" stroke="none" stroke-width="1" fill="none" fill-rule="evenodd" sketch:type="MSPage">
        <path d="M21,20 L21,21 L20.847,21.076 L31,41 L0,41 L10.159,21.08 L10,21 L10,20 L10.159,19.92 L0,0 L31,0 L20.847,19.924 L21,20 L21,20 Z M27.996,1.99 L3.01,1.99 L12,19 L12,22 L3.01,39.01 L27.996,39.01 L19,22 L19,19 L27.996,1.99 L27.996,1.99 Z M16,24.851 L22,35 L9,35 L15,24.844 L15,17.287 L11.991,12.986 L19.005,12.986 L16,17.281 L16,24.851 L16,24.851 Z" id="clock" fill="#000000" sketch:type="MSShapeGroup"></path>
    </g>
</svg>