<?xml version="1.0" encoding="UTF-8" standalone="no"?>
<svg width="68px" height="55px" viewBox="0 0 68 55" version="1.1" xmlns="http://www.w3.org/2000/svg" xmlns:xlink="http://www.w3.org/1999/xlink" xmlns:sketch="http://www.bohemiancoding.com/sketch/ns">
    <!-- Generator: Sketch 3.3 (11970) - http://www.bohemiancoding.com/sketch -->
    <title>diamond</title>
    <desc>Created with Sketch.</desc>
    <defs></defs>
    <g id="Page-1" stroke="none" stroke-width="1" fill="none" fill-rule="evenodd" sketch:type="MSPage">
        <path d="M67.5791499,19.795 L35.0081499,54.54 C34.8301499,54.821 34.5281499,54.996 34.2001499,54.996 C34.1951499,54.996 34.1891499,54.994 34.1841499,54.993 C34.1831499,54.993 34.1821499,54.994 34.1811499,54.994 C34.1771499,54.994 34.1741499,54.996 34.1711499,54.996 L34.1681499,54.996 C34.1321499,54.996 34.1001499,54.979 34.0661499,54.975 C34.0121499,54.967 33.9591499,54.967 33.9061499,54.95 C33.8981499,54.947 33.8921499,54.94 33.8841499,54.937 C33.8651499,54.931 33.8431499,54.932 33.8251499,54.925 C33.7921499,54.912 33.7641499,54.894 33.7341499,54.878 C33.6571499,54.838 33.5871499,54.79 33.5221499,54.73 C33.5071499,54.716 33.4871499,54.71 33.4721499,54.695 L0.397149926,19.832 C0.277149926,19.748 0.172149926,19.642 0.0981499264,19.509 C0.0511499264,19.423 0.0501499264,19.327 0.0291499264,19.234 C0.0211499264,19.2 0.0101499264,19.171 0.00514992642,19.137 C-0.00985007358,19.007 0.00914992642,18.886 0.0461499264,18.76 C0.0581499264,18.711 0.0421499264,18.66 0.0621499264,18.612 C0.0751499264,18.58 0.0971499264,18.555 0.113149926,18.526 C0.115149926,18.523 0.114149926,18.52 0.116149926,18.517 L11.0051499,0.47 C11.0281499,0.432 11.0691499,0.414 11.0971499,0.38 C11.1511499,0.311 11.2121499,0.251 11.2811499,0.199 C11.3321499,0.163 11.3801499,0.131 11.4371499,0.105 C11.5441499,0.053 11.6591499,0.021 11.7811499,0.012 C11.7971499,0.011 11.8101499,0 11.8271499,0 L11.8321499,0 C11.8371499,0 11.8411499,0.003 11.8461499,0.003 L11.8481499,0.003 L33.9341499,0 L33.9341499,0 L33.9361499,0 L33.9361499,0 L34.0451499,0 C34.0531499,0 34.0601499,0.003 34.0681499,0.003 L56.0021499,0 L56.0021499,0 L56.0031499,0 L56.1121499,0 C56.4631499,0 56.7851499,0.193 56.9571499,0.505 C57.0041499,0.591 57.0051499,0.689 57.0251499,0.783 L67.7041499,18.339 C67.7741499,18.419 67.8351499,18.507 67.8781499,18.609 C67.8821499,18.618 67.8781499,18.628 67.8811499,18.637 C67.9341499,18.758 67.9701499,18.887 67.9701499,19.028 C67.9711499,19.346 67.8111499,19.616 67.5791499,19.795 L67.5791499,19.795 Z M34.1751499,50.849 L43.8421499,20.01 L24.3211499,20.01 L34.1751499,50.849 L34.1751499,50.849 Z M45.8751499,20.01 L36.4181499,50.18 L64.6991499,20.01 L45.8751499,20.01 L45.8751499,20.01 Z M31.9481499,50.25 L22.2861499,20.01 L3.26014993,20.01 L31.9481499,50.25 L31.9481499,50.25 Z M11.8431499,2.847 L2.69414993,18.01 L21.2021499,18.01 L13.9631499,6.271 L11.8431499,2.847 L11.8431499,2.847 Z M13.5971499,1.973 L15.0551499,4.338 L22.9711499,17.119 L32.1991499,1.97 L13.5971499,1.973 L13.5971499,1.973 Z M33.9951499,2.934 L24.8051499,18.01 L43.2341499,18.01 L33.9951499,2.934 L33.9951499,2.934 Z M35.7901499,1.973 L45.0201499,17.021 L54.2491499,1.97 L35.7901499,1.973 L35.7901499,1.973 Z M56.0571499,2.954 L46.9371499,18.01 L65.2141499,18.01 L56.0571499,2.954 L56.0571499,2.954 Z" id="diamond" fill="#000000" sketch:type="MSShapeGroup"></path>
    </g>
</svg>