<?xml version="1.0" encoding="UTF-8" standalone="no"?>
<svg width="57px" height="56px" viewBox="0 0 57 56" version="1.1" xmlns="http://www.w3.org/2000/svg" xmlns:xlink="http://www.w3.org/1999/xlink" xmlns:sketch="http://www.bohemiancoding.com/sketch/ns">
    <!-- Generator: Sketch 3.3 (11970) - http://www.bohemiancoding.com/sketch -->
    <title>dollar</title>
    <desc>Created with Sketch.</desc>
    <defs></defs>
    <g id="Page-1" stroke="none" stroke-width="1" fill="none" fill-rule="evenodd" sketch:type="MSPage">
        <path d="M28.5794725,56 C13.1154725,56 0.579472494,43.464 0.579472494,28 C0.579472494,12.536 13.1154725,0 28.5794725,0 C44.0434725,0 56.5794725,12.536 56.5794725,28 C56.5794725,43.464 44.0434725,56 28.5794725,56 L28.5794725,56 Z M28.5794725,1.909 C14.1974725,1.909 2.48847249,13.618 2.48847249,28 C2.48847249,42.382 14.1974725,54.091 28.5794725,54.091 C42.9614725,54.091 54.6704725,42.382 54.6704725,28 C54.6704725,13.618 42.9614725,1.909 28.5794725,1.909 L28.5794725,1.909 Z M31.7614725,27.045 C35.7704725,27.045 39.0794725,30.354 39.0794725,34.364 C39.0794725,38.373 35.7704725,41.682 31.7614725,41.682 L29.5344725,41.682 L29.5344725,47.091 C29.5344725,47.6 29.0884725,48.045 28.5794725,48.045 C28.0704725,48.045 27.6244725,47.6 27.6244725,47.091 L27.6244725,41.682 L19.0344725,41.682 C18.5244725,41.682 18.0794725,41.236 18.0794725,40.727 C18.0794725,40.218 18.5244725,39.773 19.0344725,39.773 L27.6244725,39.773 L27.6244725,28.954 L25.3974725,28.954 C21.3884725,28.954 18.0794725,25.645 18.0794725,21.636 C18.0794725,17.627 21.3884725,14.318 25.3974725,14.318 L27.6244725,14.318 L27.6244725,8.909 C27.6244725,8.4 28.0704725,7.955 28.5794725,7.955 C29.0884725,7.955 29.5344725,8.4 29.5344725,8.909 L29.5344725,14.318 L38.1244725,14.318 C38.6344725,14.318 39.0794725,14.764 39.0794725,15.273 C39.0794725,15.782 38.6344725,16.227 38.1244725,16.227 L29.5344725,16.227 L29.5344725,27.045 L31.7614725,27.045 L31.7614725,27.045 Z M29.5344725,39.773 L31.7614725,39.773 C34.7524725,39.773 37.1704725,37.355 37.1704725,34.364 C37.1704725,31.373 34.7524725,28.954 31.7614725,28.954 L29.5344725,28.954 L29.5344725,39.773 L29.5344725,39.773 Z M27.6244725,16.227 L25.3974725,16.227 C22.4064725,16.227 19.9884725,18.646 19.9884725,21.636 C19.9884725,24.627 22.4064725,27.045 25.3974725,27.045 L27.6244725,27.045 L27.6244725,16.227 L27.6244725,16.227 Z" id="dollar" fill="#000000" sketch:type="MSShapeGroup"></path>
    </g>
</svg>