<?xml version="1.0" encoding="UTF-8" standalone="no"?>
<svg width="67px" height="59px" viewBox="0 0 67 59" version="1.1" xmlns="http://www.w3.org/2000/svg" xmlns:xlink="http://www.w3.org/1999/xlink" xmlns:sketch="http://www.bohemiancoding.com/sketch/ns">
    <!-- Generator: Sketch 3.3 (11970) - http://www.bohemiancoding.com/sketch -->
    <title>eye</title>
    <desc>Created with Sketch.</desc>
    <defs></defs>
    <g id="Page-1" stroke="none" stroke-width="1" fill="none" fill-rule="evenodd" sketch:type="MSPage">
        <path d="M0.421527506,59 L33.4205275,-0.016 L66.4205275,59 L0.421527506,59 L0.421527506,59 Z M3.42252751,56.984 L63.4225275,56.984 L33.4225275,3.984 L3.42252751,56.984 L3.42252751,56.984 Z M48.2615275,41.84 C48.1075275,42.173 44.3765275,50 33.4205275,50 C22.4655275,50 18.7335275,42.173 18.5805275,41.84 L18.4195275,41.489 L18.5815275,41.14 C18.7375275,40.807 22.5135275,32.983 33.4205275,32.983 C44.3295275,32.983 48.1045275,40.807 48.2595275,41.14 L48.4225275,41.489 L48.2615275,41.84 L48.2615275,41.84 Z M33.4205275,34.603 C24.7575275,34.604 21.0205275,40.057 20.1835275,41.498 C21.0095275,42.966 24.6545275,48.379 33.4205275,48.379 C42.1185275,48.379 45.8285275,42.932 46.6575275,41.489 C45.8245275,40.022 42.1535275,34.603 33.4205275,34.603 L33.4205275,34.603 Z M33.4205275,46.226 C30.8765275,46.226 28.8065275,44.144 28.8065275,41.585 C28.8065275,39.027 30.8765275,36.945 33.4205275,36.945 C35.9655275,36.945 38.0345275,39.027 38.0345275,41.585 C38.0345275,44.145 35.9655275,46.226 33.4205275,46.226 L33.4205275,46.226 Z M33.4205275,38.517 C31.7395275,38.517 30.3705275,39.894 30.3705275,41.585 C30.3705275,43.277 31.7395275,44.653 33.4205275,44.653 C35.1025275,44.653 36.4705275,43.277 36.4705275,41.585 C36.4705275,39.894 35.1025275,38.517 33.4205275,38.517 L33.4205275,38.517 Z" id="eye" fill="#000000" sketch:type="MSShapeGroup"></path>
    </g>
</svg>