<?xml version="1.0" encoding="UTF-8" standalone="no"?>
<svg width="50px" height="21px" viewBox="0 0 50 21" version="1.1" xmlns="http://www.w3.org/2000/svg" xmlns:xlink="http://www.w3.org/1999/xlink" xmlns:sketch="http://www.bohemiancoding.com/sketch/ns">
    <!-- Generator: Sketch 3.3 (11970) - http://www.bohemiancoding.com/sketch -->
    <title>fish</title>
    <desc>Created with Sketch.</desc>
    <defs></defs>
    <g id="Page-1" stroke="none" stroke-width="1" fill="none" fill-rule="evenodd" sketch:type="MSPage">
        <path d="M49.9191199,11.398 C49.7651199,11.7 46.6071199,19.1 31.6631199,20.761 C30.5841199,20.912 29.1981199,20.987 27.6571199,20.987 C21.5721199,20.987 16.3341199,18.647 11.8661199,13.966 L1.00511991,17.816 C0.697119913,17.967 0.311119913,17.816 0.0801199133,17.514 C-0.0738800867,17.288 0.00311991333,16.91 0.234119913,16.608 C0.311119913,16.533 4.77911991,11.625 3.54711991,7.774 C2.31411991,3.924 1.23611991,3.093 1.23611991,3.093 C0.851119913,2.867 0.774119913,2.414 1.00511991,2.111 C1.23611991,1.81 1.69811991,1.658 2.00611991,1.81 L12.0971199,7.019 C13.4841199,5.283 18.4141199,0.148 29.2751199,-0.003 L29.6601199,-0.003 C40.2131199,-0.003 45.6051199,5.132 49.8421199,10.643 C49.9961199,10.87 50.0731199,11.096 49.9191199,11.398 L49.9191199,11.398 Z M29.7371199,1.507 L29.3521199,1.507 C17.3351199,1.734 12.9441199,8.378 12.9441199,8.454 C12.7131199,8.831 12.2511199,8.907 11.9431199,8.756 L3.93211991,4.603 C4.24011991,5.358 4.62511991,6.264 5.01011991,7.397 C6.01211991,10.341 4.39411991,13.588 3.00711991,15.627 L11.8661199,12.38 C12.1741199,12.305 12.4821199,12.38 12.7131199,12.606 C17.0271199,17.363 21.8031199,19.553 27.7341199,19.553 C29.1981199,19.553 30.5071199,19.402 31.5091199,19.326 C32.2791199,19.251 33.0491199,19.1 33.7431199,19.024 C28.4281199,14.872 31.1241199,8.076 31.1241199,8.001 C31.2781199,7.623 31.7401199,7.397 32.1251199,7.548 C32.5101199,7.699 32.7411199,8.152 32.5871199,8.529 C32.5101199,8.831 29.9681199,15.174 35.8991199,18.571 C44.6041199,16.608 47.6081199,12.455 48.3781199,11.172 C43.8341199,5.358 38.9041199,1.507 29.7371199,1.507 L29.7371199,1.507 Z M38.7501199,10.039 C37.9411199,10.039 37.2861199,9.397 37.2861199,8.605 C37.2861199,7.813 37.9411199,7.17 38.7501199,7.17 C39.5581199,7.17 40.2131199,7.813 40.2131199,8.605 C40.2131199,9.397 39.5581199,10.039 38.7501199,10.039 L38.7501199,10.039 Z" id="fish" fill="#000000" sketch:type="MSShapeGroup"></path>
    </g>
</svg>