<?xml version="1.0" encoding="UTF-8" standalone="no"?>
<svg width="55px" height="47px" viewBox="0 0 55 47" version="1.1" xmlns="http://www.w3.org/2000/svg" xmlns:xlink="http://www.w3.org/1999/xlink" xmlns:sketch="http://www.bohemiancoding.com/sketch/ns">
    <!-- Generator: Sketch 3.3 (11970) - http://www.bohemiancoding.com/sketch -->
    <title>letter</title>
    <desc>Created with Sketch.</desc>
    <defs></defs>
    <g id="Page-1" stroke="none" stroke-width="1" fill="none" fill-rule="evenodd" sketch:type="MSPage">
        <path d="M23.984055,39.0155 L17.616055,47.0155 L11.357055,39.0155 L0.842055012,39.0155 L0.842055012,0.0155 L54.842055,0.0155 L54.842055,39.0155 L23.984055,39.0155 L23.984055,39.0155 Z M52.842055,3.4635 L34.189055,23.0045 L52.842055,35.8055 L52.842055,3.4635 L52.842055,3.4635 Z M12.077055,37.0155 L17.677055,44.0155 L23.178055,37.0155 L51.079055,37.0155 L32.793055,24.4665 L32.549055,24.7225 L31.199055,23.3725 L23.312055,17.9595 L4.25605501,37.0155 L12.077055,37.0155 L12.077055,37.0155 Z M2.84205501,35.6015 L21.635055,16.8085 L2.84205501,3.9115 L2.84205501,35.6015 L2.84205501,35.6015 Z M32.519055,21.8585 L51.460055,2.0155 L3.60505501,2.0155 L32.519055,21.8585 L32.519055,21.8585 Z" id="letter" fill="#000000" sketch:type="MSShapeGroup"></path>
    </g>
</svg>