<?xml version="1.0" encoding="UTF-8" standalone="no"?>
<svg width="34px" height="53px" viewBox="0 0 34 53" version="1.1" xmlns="http://www.w3.org/2000/svg" xmlns:xlink="http://www.w3.org/1999/xlink" xmlns:sketch="http://www.bohemiancoding.com/sketch/ns">
    <!-- Generator: Sketch 3.3 (11970) - http://www.bohemiancoding.com/sketch -->
    <title>phone</title>
    <desc>Created with Sketch.</desc>
    <defs></defs>
    <g id="Page-1" stroke="none" stroke-width="1" fill="none" fill-rule="evenodd" sketch:type="MSPage">
        <path d="M31.512063,53 L1.512063,53 C0.684062999,53 0.012062999,52.328 0.012062999,51.5 L0.012062999,1.5 C0.012062999,0.672 0.684062999,0 1.512063,0 L31.512063,0 C32.340063,0 33.012063,0.672 33.012063,1.5 L33.012063,51.5 C33.012063,52.328 32.340063,53 31.512063,53 L31.512063,53 Z M31.012063,2 L2.012063,2 L2.012063,51 L31.012063,51 L31.012063,2 L31.012063,2 Z M6.159063,11.147 L11.159063,6.147 C11.354063,5.952 11.671063,5.952 11.866063,6.147 C12.061063,6.342 12.061063,6.659 11.866063,6.854 L6.866063,11.854 C6.768063,11.951 6.640063,12 6.512063,12 C6.384063,12 6.256063,11.951 6.159063,11.854 C5.964063,11.659 5.964063,11.342 6.159063,11.147 L6.159063,11.147 Z M6.159063,16.147 L16.159063,6.147 C16.354063,5.952 16.671063,5.952 16.866063,6.147 C17.061063,6.342 17.061063,6.659 16.866063,6.854 L6.866063,16.854 C6.768063,16.951 6.640063,17 6.512063,17 C6.384063,17 6.256063,16.951 6.159063,16.854 C5.964063,16.659 5.964063,16.342 6.159063,16.147 L6.159063,16.147 Z M16.512063,40.02 C17.335063,40.02 18.002063,40.687 18.002063,41.51 C18.002063,42.333 17.335063,43 16.512063,43 C15.689063,43 15.022063,42.333 15.022063,41.51 C15.022063,40.687 15.689063,40.02 16.512063,40.02 L16.512063,40.02 Z M18.512063,6 L21.512063,6 C21.788063,6 22.012063,6.224 22.012063,6.5 C22.012063,6.776 21.788063,7 21.512063,7 L18.512063,7 C18.236063,7 18.012063,6.776 18.012063,6.5 C18.012063,6.224 18.236063,6 18.512063,6 L18.512063,6 Z" id="phone" fill="#000000" sketch:type="MSShapeGroup"></path>
    </g>
</svg>