<?xml version="1.0" encoding="UTF-8" standalone="no"?>
<svg width="79px" height="80px" viewBox="0 0 79 80" version="1.1" xmlns="http://www.w3.org/2000/svg" xmlns:xlink="http://www.w3.org/1999/xlink" xmlns:sketch="http://www.bohemiancoding.com/sketch/ns">
    <!-- Generator: Sketch 3.3 (11970) - http://www.bohemiancoding.com/sketch -->
    <title>steering</title>
    <desc>Created with Sketch.</desc>
    <defs></defs>
    <g id="Page-1" stroke="none" stroke-width="1" fill="none" fill-rule="evenodd" sketch:type="MSPage">
        <path d="M77.792,38.8015 L72.606,38.8015 L72.606,38.4025 C72.606,37.7415 72.071,37.2055 71.409,37.2055 C70.747,37.2055 70.212,37.7405 70.212,38.4025 L70.212,38.8015 L67.74,38.8015 C67.451,31.9035 64.685,25.6375 60.305,20.8735 L61.497,19.6815 L61.78,19.9645 C62.014,20.1975 62.319,20.3145 62.626,20.3145 C62.934,20.3145 63.238,20.1975 63.474,19.9645 C63.941,19.4955 63.94,18.7385 63.473,18.2705 L63.19,17.9885 L67.422,13.7555 C67.89,13.2885 67.89,12.5295 67.422,12.0625 C66.954,11.5955 66.197,11.5955 65.73,12.0625 L61.498,16.2955 L61.215,16.0125 C60.747,15.5455 59.991,15.5455 59.522,16.0125 C59.055,16.4815 59.056,17.2385 59.523,17.7055 L59.806,17.9885 L58.614,19.1805 C53.851,14.8005 47.587,12.0325 40.693,11.7435 L40.693,9.2695 L41.092,9.2695 C41.753,9.2695 42.289,8.7345 42.289,8.0725 C42.289,7.4105 41.751,6.8755 41.09,6.8755 L40.691,6.8755 L40.691,1.6885 C40.691,1.0255 40.155,0.4905 39.494,0.4905 C38.833,0.4905 38.297,1.0255 38.297,1.6885 L38.297,6.8755 L37.898,6.8755 C37.237,6.8755 36.701,7.4115 36.701,8.0735 C36.701,8.7355 37.236,9.2705 37.898,9.2705 L38.297,9.2705 L38.297,11.7445 C31.402,12.0335 25.138,14.8015 20.376,19.1825 L19.183,17.9895 L19.465,17.7075 C19.932,17.2385 19.932,16.4815 19.465,16.0135 C18.998,15.5465 18.24,15.5465 17.773,16.0135 L17.491,16.2965 L13.259,12.0635 C12.792,11.5965 12.034,11.5965 11.566,12.0635 C11.099,12.5305 11.099,13.2895 11.566,13.7565 L15.798,17.9895 L15.516,18.2715 C15.049,18.7395 15.049,19.4975 15.516,19.9645 C15.75,20.1985 16.056,20.3155 16.363,20.3155 C16.669,20.3155 16.975,20.1985 17.209,19.9645 L17.491,19.6835 L18.683,20.8755 C14.304,25.6395 11.537,31.9055 11.249,38.8025 L9.574,38.8025 L9.574,38.4035 C9.574,37.7425 9.039,37.2065 8.377,37.2065 C7.715,37.2065 7.18,37.7415 7.18,38.4035 L7.18,38.8015 L1.197,38.8015 C0.535,38.8015 0,39.3375 0,39.9995 C0,40.6615 0.535,41.1975 1.197,41.1975 L7.181,41.1975 L7.181,41.5965 C7.181,42.2575 7.716,42.7935 8.378,42.7935 C9.04,42.7935 9.575,42.2585 9.575,41.5965 L9.575,41.1975 L11.25,41.1975 C11.538,48.0945 14.305,54.3605 18.684,59.1255 L16.927,60.8825 L16.645,60.5995 C16.179,60.1335 15.421,60.1335 14.953,60.5985 C14.486,61.0675 14.486,61.8245 14.953,62.2925 L15.235,62.5755 L11.568,66.2435 C11.101,66.7105 11.101,67.4685 11.568,67.9355 C11.802,68.1695 12.108,68.2865 12.415,68.2865 C12.721,68.2865 13.027,68.1695 13.261,67.9355 L16.927,64.2685 L17.209,64.5505 C17.443,64.7835 17.749,64.9015 18.055,64.9015 C18.362,64.9015 18.668,64.7835 18.902,64.5515 C19.369,64.0825 19.369,63.3255 18.902,62.8575 L18.62,62.5755 L20.377,60.8175 C25.14,65.1995 31.404,67.9675 38.299,68.2555 L38.299,69.9305 L37.9,69.9305 C37.239,69.9305 36.703,70.4665 36.703,71.1285 C36.703,71.7905 37.238,72.3255 37.9,72.3255 L38.297,72.3255 L38.297,78.3115 C38.297,78.9735 38.833,79.5095 39.494,79.5095 C40.156,79.5095 40.692,78.9745 40.692,78.3115 L40.692,72.3255 L41.091,72.3255 C41.752,72.3255 42.288,71.7905 42.288,71.1285 C42.288,70.4665 41.753,69.9305 41.091,69.9305 L40.692,69.9305 L40.692,68.2555 C47.587,67.9655 53.851,65.1995 58.614,60.8185 L60.37,62.5755 L60.087,62.8575 C59.619,63.3255 59.619,64.0825 60.087,64.5505 C60.321,64.7835 60.626,64.9015 60.934,64.9015 C61.241,64.9015 61.545,64.7835 61.78,64.5505 L62.063,64.2675 L65.73,67.9355 C65.963,68.1695 66.269,68.2865 66.576,68.2865 C66.883,68.2865 67.188,68.1695 67.423,67.9355 C67.891,67.4685 67.891,66.7105 67.423,66.2435 L63.755,62.5755 L64.037,62.2935 C64.505,61.8255 64.505,61.0675 64.037,60.6005 C63.57,60.1335 62.813,60.1335 62.345,60.6005 L62.064,60.8825 L60.308,59.1255 C64.687,54.3615 67.454,48.0955 67.742,41.1975 L70.214,41.1975 L70.214,41.5965 C70.214,42.2575 70.749,42.7935 71.411,42.7935 C72.073,42.7935 72.608,42.2585 72.608,41.5965 L72.608,41.1975 L77.794,41.1975 C78.455,41.1975 78.991,40.6615 78.991,39.9995 C78.991,39.3375 78.453,38.8015 77.792,38.8015 L77.792,38.8015 Z M65.346,38.8015 L63.266,38.8015 C62.985,33.1355 60.717,27.9845 57.148,24.0295 L58.613,22.5655 C62.561,26.8945 65.061,32.5645 65.346,38.8015 L65.346,38.8015 Z M40.691,20.8215 C45.084,21.1055 49.074,22.8645 52.177,25.6175 L40.691,37.1085 L40.691,20.8215 L40.691,20.8215 Z M38.297,37.1095 L26.764,25.5715 C29.882,22.8245 33.889,21.0795 38.297,20.8175 L38.297,37.1095 L38.297,37.1095 Z M36.605,38.8015 L20.273,38.8015 C20.547,34.3875 22.307,30.3795 25.069,27.2625 L36.605,38.8015 L36.605,38.8015 Z M36.605,41.1965 L25.069,52.7355 C22.307,49.6185 20.546,45.6115 20.273,41.1965 L36.605,41.1965 L36.605,41.1965 Z M38.297,42.8885 L38.297,59.1805 C33.889,58.9185 29.883,57.1735 26.764,54.4265 L38.297,42.8885 L38.297,42.8885 Z M40.691,42.8895 L52.177,54.3805 C49.074,57.1325 45.084,58.8925 40.691,59.1755 L40.691,42.8895 L40.691,42.8895 Z M42.382,41.1965 L58.618,41.1965 C58.346,45.5875 56.604,49.5765 53.868,52.6855 L42.382,41.1965 L42.382,41.1965 Z M42.382,38.8015 L53.868,27.3125 C56.605,30.4215 58.346,34.4105 58.618,38.8015 L42.382,38.8015 L42.382,38.8015 Z M56.92,20.8735 L55.459,22.3335 C51.51,18.7485 46.36,16.4655 40.691,16.1735 L40.691,14.1375 C46.926,14.4235 52.593,16.9245 56.92,20.8735 L56.92,20.8735 Z M38.297,14.1375 L38.297,16.1695 C32.615,16.4415 27.447,18.7105 23.483,22.2905 L22.067,20.8735 C26.395,16.9245 32.062,14.4235 38.297,14.1375 L38.297,14.1375 Z M20.375,22.5665 L21.788,23.9795 C18.193,27.9415 15.91,33.1115 15.627,38.8015 L13.643,38.8015 C13.928,32.5645 16.428,26.8955 20.375,22.5665 L20.375,22.5665 Z M13.642,41.1965 L15.626,41.1965 C15.909,46.8865 18.192,52.0565 21.787,56.0185 L20.375,57.4315 C16.428,53.1035 13.928,47.4335 13.642,41.1965 L13.642,41.1965 Z M22.067,59.1245 L23.483,57.7075 C27.447,61.2875 32.615,63.5575 38.298,63.8285 L38.298,65.8605 C32.061,65.5755 26.394,63.0745 22.067,59.1245 L22.067,59.1245 Z M40.691,65.8605 L40.691,63.8255 C46.36,63.5315 51.511,61.2495 55.46,57.6635 L56.921,59.1255 C52.594,63.0745 46.927,65.5755 40.691,65.8605 L40.691,65.8605 Z M58.613,57.4325 L57.148,55.9675 C60.716,52.0125 62.985,46.8615 63.266,41.1965 L65.346,41.1965 C65.061,47.4345 62.561,53.1035 58.613,57.4325 L58.613,57.4325 Z" id="steering" fill="#000000" sketch:type="MSShapeGroup"></path>
    </g>
</svg>