<svg width="455" height="216" viewBox="0 0 455 216" xmlns="http://www.w3.org/2000/svg">
    <title>
        triangles
    </title>
    <g fill="#FFF000" fill-rule="evenodd">
        <path d="M255.915.18l21.862 131.173L154.12 87"/>
        <path d="M162.225 42.85l-4.63 26.916-21.997-20.26"/>
        <path d="M113.313 44.165l11.577 40.81-38.204-10.71"/>
        <path d="M66.335 24.904L59 90.182.27 47.712"/>
        <path d="M292.843 42.207v44.83l-32.436-18.12"/>
        <path d="M325.38 9.71l94.737 45.406-91.374 57.738"/>
        <path d="M62.446 147.394l-8.76-39.04 38.222 12.403-29.462 26.637z"/>
        <path d="M127 116.427l-5-10.002h10l-5 10.002z"/>
        <path d="M140.998 130.422v-18.3l16.108 9.15-16.108 9.15z"/>
        <path d="M175.634 175.317l-3.79-8.004 8.784.45-4.994 7.554z"/>
        <path d="M201.672 141.916V108.52l28.922 16.698-28.922 16.698z"/>
        <path d="M237.744 185.674l-16.092-11.84 18.3-8.016-2.208 19.856z"/>
        <path d="M258.633 215.576l-8.333-3 6.54-5.88 1.793 8.88z"/>
        <path d="M332.178 142.142L282.98 155.06l13.41-49.064 35.788 36.146z"/>
        <path d="M319.634 185.576l-8.334-3 6.54-5.88 1.794 8.88z"/>
        <path d="M354.268 154.204v-39.817l34.482 19.91-34.482 19.907z"/>
        <path d="M428.203 76.573l26.137 26.137-35.703 9.567 9.566-35.704z"/>
        <path d="M413.62 177.653l14.127-14.127 5.17 19.296-19.297-5.17z"/>
    </g>
</svg>
